<?xml version="1.0" encoding="UTF-8"?><svg id="Layer_2" xmlns="http://www.w3.org/2000/svg" viewBox="0 0 183.89 31.18"><defs><style>.cls-1{fill:#ddf42a;}.cls-1,.cls-2{stroke-width:0px;}.cls-2{fill:#231f20;}</style></defs><g id="Layer_1-2"><polygon class="cls-1" points="0 21.52 0 30.3 25.37 30.3 30.3 25.37 30.3 12.95 21.73 21.52 0 21.52"/><polygon class="cls-1" points="4.93 0 0 4.93 0 17.36 8.57 8.78 30.3 8.78 30.3 0 4.93 0"/><path class="cls-2" d="M56.49,15.41c-.93-.36-2.04-.66-3.35-.91l-1.96-.38c-.73-.14-1.35-.29-1.86-.45-.5-.16-.91-.38-1.2-.67-.3-.29-.45-.64-.45-1.05,0-.62.29-1.1.86-1.46.57-.35,1.37-.53,2.41-.53,1.1,0,1.97.27,2.61.81.64.54.96,1.29.96,2.25h4.57c0-2.04-.73-3.62-2.2-4.74-1.47-1.12-3.53-1.68-6.19-1.68-1.58,0-2.96.22-4.14.67-1.18.45-2.09,1.09-2.73,1.92-.64.84-.96,1.8-.96,2.9,0,1.17.3,2.11.91,2.84.61.72,1.37,1.27,2.28,1.63.92.37,2.02.66,3.3.89l2.06.38c1.12.21,1.98.47,2.58.79.6.32.89.79.89,1.41s-.3,1.11-.89,1.48c-.6.37-1.43.55-2.51.55-1.31,0-2.32-.26-3.04-.79s-1.11-1.27-1.15-2.23h-4.81c.02,1.37.39,2.54,1.1,3.49.71.95,1.72,1.67,3.04,2.17,1.32.49,2.91.74,4.79.74,1.74,0,3.24-.22,4.48-.65,1.25-.43,2.19-1.07,2.83-1.91s.96-1.85.96-3.04-.3-2.14-.91-2.84c-.61-.7-1.37-1.23-2.3-1.58Z"/><path class="cls-2" d="M72.52,13.8c1.37-1.21,2.54-2.28,3.5-3.2l3.57-3.47h-5.63l-4.23,4.12c-.92.92-2.03,2.14-3.33,3.68l-.21-.07c.09-1.95.14-3.96.14-6.05V.81h-4.78v24.05h4.78v-4.78l2.27-2.2h.72c.8,0,1.47.24,2.01.7.54.47,1,1.15,1.39,2.04l1.79,4.23h5.08l-2.95-6.67c-.5-1.19-1.12-2.07-1.84-2.63s-1.69-.89-2.9-.98l-.03-.17c.09-.09.2-.18.33-.27s.23-.21.33-.34Z"/><path class="cls-2" d="M94.34,16.41c0,1.05-.18,1.97-.53,2.75-.36.78-.85,1.37-1.5,1.79-.64.41-1.41.62-2.3.62-1.26,0-2.25-.4-2.97-1.19-.72-.79-1.08-1.88-1.08-3.28V7.13h-4.88v11.44c0,1.42.29,2.65.86,3.69.57,1.04,1.36,1.83,2.37,2.35,1.01.53,2.11.79,3.3.79,1.63,0,2.99-.41,4.11-1.24s1.92-2,2.42-3.54h.21l.1,4.23h4.78V7.13h-4.88v9.28Z"/><rect class="cls-2" x="101.09" y=".81" width="4.84" height="24.05"/><path class="cls-2" d="M123.3,7.73c-1.15-.77-2.44-1.15-3.88-1.15-1.56,0-2.9.4-4.02,1.2-1.12.8-1.98,1.94-2.58,3.4h-.14l-.17-4.05h-4.71v24.05h4.88v-10.34h.14c.6,1.47,1.45,2.59,2.58,3.38,1.12.79,2.46,1.19,4.02,1.19,1.44,0,2.74-.39,3.88-1.17,1.14-.78,2.04-1.87,2.68-3.28.64-1.41.96-3.06.96-4.97s-.32-3.53-.96-4.97c-.64-1.43-1.53-2.53-2.68-3.3ZM121.43,19.24c-.4.91-.95,1.59-1.65,2.04-.7.46-1.52.69-2.46.69s-1.72-.21-2.42-.64c-.7-.42-1.24-1.01-1.63-1.75-.39-.74-.58-1.59-.58-2.53v-2.1c0-.96.19-1.82.58-2.56.39-.74.93-1.33,1.63-1.77.7-.43,1.51-.65,2.42-.65s1.76.24,2.46.72c.7.48,1.25,1.17,1.65,2.08.4.91.6,1.98.6,3.21s-.2,2.34-.6,3.25Z"/><path class="cls-2" d="M165.68,6.82c-1.63,0-2.93.21-3.9.64-.97.42-1.72,1.05-2.25,1.89-.53.84-.93,1.95-1.2,3.35h-.17l-.14-5.57h-5v9.28c0,1.05-.18,1.97-.53,2.75-.36.78-.85,1.37-1.5,1.79-.64.41-1.41.62-2.3.62-1.26,0-2.25-.4-2.97-1.19-.72-.79-1.08-1.88-1.08-3.28V7.13h-9.35l-.14-4.64h-4.67v4.64h-2.78v2.99h2.78v14.74h4.91v-14.74h4.37v8.45c0,1.42.29,2.65.86,3.69.57,1.04,1.36,1.83,2.37,2.35,1.01.53,2.11.79,3.3.79,1.63,0,2.99-.41,4.11-1.24s1.92-2,2.42-3.54h.21l.1,4.23h5.03v-6.8c0-1.42.16-2.58.48-3.49.32-.9.84-1.63,1.55-2.18.57-.43,1.3-.77,2.18-1,.88-.23,1.99-.38,3.32-.45v-4.12Z"/><path class="cls-2" d="M183.89,15.48c0-1.72-.39-3.25-1.17-4.6-.78-1.35-1.85-2.41-3.21-3.16-1.36-.76-2.92-1.13-4.66-1.13-1.83,0-3.44.38-4.83,1.15-1.39.77-2.46,1.86-3.21,3.28-.76,1.42-1.13,3.06-1.13,4.91,0,2.02.38,3.74,1.15,5.17.77,1.43,1.86,2.51,3.28,3.23s3.1,1.08,5.05,1.08c1.31,0,2.58-.25,3.83-.76,1.25-.5,2.3-1.26,3.16-2.27.86-1.01,1.38-2.23,1.56-3.68h-4.3c-.14.57-.4,1.09-.79,1.55-.39.46-.88.82-1.48,1.08-.6.26-1.26.4-1.99.4-.94,0-1.78-.19-2.51-.58s-1.31-.96-1.72-1.7c-.39-.71-.59-1.54-.61-2.49h13.46c.07-.55.1-1.04.1-1.48ZM172.48,10.81c.69-.37,1.48-.55,2.37-.55,1.31,0,2.34.41,3.11,1.22.69.73,1.05,1.7,1.12,2.87h-8.71c.05-.74.22-1.4.53-1.98.37-.68.89-1.2,1.58-1.56Z"/></g></svg>